<svg width="524" height="670" viewBox="0 0 524 670" fill="none" xmlns="http://www.w3.org/2000/svg">
<path d="M1.755 563.88L86.775 445.515H38.805C31.135 445.515 24.83 447.595 19.89 451.755C15.08 455.785 12.155 462.22 11.115 471.06H6.045L9.945 437.91H112.71V441.225L28.275 559.395H82.29C98.15 559.395 108.03 550.49 111.93 532.68H116.61L111.93 567H1.95L1.755 563.88ZM136.564 544.185L183.169 435.765H186.874L236.989 550.23C239.069 555.3 241.279 558.81 243.619 560.76C245.829 562.58 249.014 563.49 253.174 563.49V567H203.254V563.1L206.374 563.49C213.394 563.49 216.904 561.085 216.904 556.275C216.904 554.325 216.319 551.79 215.149 548.67L205.009 524.685H153.919L144.364 548.67L143.194 555.3C143.194 558.29 144.429 560.37 146.899 561.54C149.369 562.84 152.684 563.49 156.844 563.49V567H118.429V563.49C121.939 563.49 124.994 562.255 127.594 559.785C130.194 557.575 133.184 552.375 136.564 544.185ZM179.854 463.455L157.429 516.69H202.279L179.854 463.455ZM363.087 466.575C363.087 459.685 362.632 454.615 361.722 451.365C360.812 447.855 358.992 445.385 356.262 443.955C353.402 442.525 349.502 441.81 344.562 441.81V437.91H389.802V441.42L382.782 442.2C380.702 442.72 378.687 443.565 376.737 444.735C375.307 445.645 374.072 447.53 373.032 450.39C371.992 453.51 371.472 457.54 371.472 462.48V522.345C371.472 529.365 370.497 535.93 368.547 542.04C366.337 548.02 363.412 553.025 359.772 557.055C351.712 565.505 338.907 569.73 321.357 569.73C304.327 569.73 291.587 565.05 283.137 555.69C279.627 551.66 276.962 546.85 275.142 541.26C273.452 536.19 272.607 530.73 272.607 524.88V459.36C272.607 455.07 272.217 451.755 271.437 449.415C270.657 447.075 269.617 445.45 268.317 444.54C266.887 443.63 265.067 443.11 262.857 442.98L255.057 441.81V437.91H310.242V441.615L304.782 442.2C303.092 442.2 301.987 442.265 301.467 442.395C301.077 442.525 300.362 442.785 299.322 443.175L297.762 443.76C296.332 444.28 295.097 445.58 294.057 447.66C293.147 449.61 292.692 452.73 292.692 457.02V527.025C292.692 530.795 293.277 534.955 294.447 539.505C295.617 544.055 297.307 547.63 299.517 550.23C306.017 557.64 315.052 561.345 326.622 561.345C333.122 561.345 338.972 560.24 344.172 558.03C349.242 555.82 353.532 552.505 357.042 548.085C361.072 542.885 363.087 533.915 363.087 521.175V466.575ZM387.02 502.65C387.02 488.87 390.01 476.845 395.99 466.575C401.84 456.175 409.64 448.375 419.39 443.175C429.27 437.845 439.8 435.18 450.98 435.18C461.51 435.18 470.675 437 478.475 440.64C486.405 444.28 493.1 449.35 498.56 455.85C503.89 462.22 507.985 469.435 510.845 477.495C513.575 485.425 514.94 493.81 514.94 502.65C514.94 509.8 513.965 516.82 512.015 523.71C509.805 530.86 506.75 537.555 502.85 543.795C494.92 556.535 481.855 564.79 463.655 568.56C478.475 588.06 496.35 597.81 517.28 597.81V601.71H508.115C495.505 601.71 483.025 599.955 470.675 596.445C458.065 592.675 447.86 585.915 440.06 576.165C438.37 574.085 437.265 572.785 436.745 572.265C435.185 570.315 433.495 568.56 431.675 567C425.045 565.05 418.805 561.995 412.955 557.835C409.705 555.495 407.17 553.22 405.35 551.01C403.27 548.93 401.06 546.2 398.72 542.82C394.82 536.97 391.895 530.6 389.945 523.71C387.995 516.82 387.02 509.8 387.02 502.65ZM409.445 500.115C409.445 507.655 410.03 514.87 411.2 521.76C412.37 528.39 414.45 535.02 417.44 541.65C420.3 547.89 424.655 553.025 430.505 557.055C436.095 561.085 443.05 563.1 451.37 563.1C457.87 563.1 463.525 561.67 468.335 558.81C473.145 556.34 477.435 552.31 481.205 546.72C484.715 541.52 487.51 535.15 489.59 527.61C490.24 524.62 490.955 520.59 491.735 515.52C492.255 511.88 492.515 507.655 492.515 502.845C492.515 491.405 490.955 481.135 487.835 472.035C484.715 462.935 480.035 455.655 473.795 450.195C467.425 444.735 459.82 442.005 450.98 442.005C442.01 442.005 434.535 444.605 428.555 449.805C422.445 455.005 417.7 462.025 414.32 470.865C411.07 479.445 409.445 489.195 409.445 500.115Z" fill="#B98934"/>
<path d="M288 126C252.5 82 255 25 270 0C264 5.66667 246 21 235 43C188.5 134 276 202.5 286.5 222.5C322 280.5 286 351.5 268.5 384.5C384 296 335 199.5 332 193C317 166.5 300 142.5 288 126Z" fill="url(#paint0_linear_267_4)"/>
<path d="M180.208 221.5C181.808 193.9 206.542 165 218.708 154C194.5 215 235.556 251.5 248 271.5C290 339 239.208 390.5 232.208 398C251 332.5 223.208 310 214.208 298C175.208 256 180.208 235.5 180.208 221.5Z" fill="url(#paint1_linear_267_4)"/>
<path d="M6.63 660.81V633.12C6.63 631.647 6.52167 630.477 6.305 629.61C6.045 628.83 5.54667 628.267 4.81 627.92C4.50667 627.79 4.00833 627.638 3.315 627.465C2.75167 627.335 2.03667 627.27 1.17 627.27V625.97H19.695C21.8617 625.97 23.8767 626.165 25.74 626.555C27.56 627.032 29.2717 627.725 30.875 628.635C32.305 629.502 33.4533 630.672 34.32 632.145C35.1433 633.618 35.555 635.352 35.555 637.345C35.555 640.248 34.6667 642.588 32.89 644.365C31.07 646.185 28.0367 647.528 23.79 648.395L36.465 663.8L38.35 666.14C38.6967 666.487 39.2817 666.833 40.105 667.18C40.9283 667.527 41.86 667.7 42.9 667.7V669H32.37L16.9 648.915H13.325V662.24C13.325 663.713 13.4983 664.84 13.845 665.62C14.1483 666.313 14.6467 666.79 15.34 667.05C15.9467 667.31 16.5533 667.483 17.16 667.57C17.8533 667.657 18.525 667.7 19.175 667.7V669H1.17V667.7C1.95 667.7 2.665 667.635 3.315 667.505C3.79167 667.462 4.39833 667.31 5.135 667.05C5.655 666.877 6.02333 666.313 6.24 665.36C6.5 664.45 6.63 662.933 6.63 660.81ZM13.325 630.52V646.64C16.0983 646.64 18.6767 646.402 21.06 645.925C23.2267 645.492 25.025 644.56 26.455 643.13C27.7983 641.787 28.47 639.793 28.47 637.15C28.47 631.3 24.7 628.375 17.16 628.375C15.5133 628.375 14.4733 628.527 14.04 628.83C13.5633 629.177 13.325 629.74 13.325 630.52ZM66.818 632.6C66.818 630.867 66.4496 629.523 65.713 628.57C64.933 627.703 63.3946 627.27 61.098 627.27V625.97H95.613L95.873 635.2H94.183C93.923 633.51 93.5546 632.145 93.078 631.105C92.6013 630.195 91.778 629.502 90.608 629.025C89.438 628.592 87.6396 628.375 85.213 628.375H75.333C74.5096 628.375 74.0113 628.527 73.838 628.83C73.6213 629.133 73.4696 629.61 73.383 630.26V630.39V645.015H82.808C85.018 645.015 86.578 644.863 87.488 644.56C88.398 644.213 89.048 643.672 89.438 642.935C89.8713 642.112 90.2396 640.768 90.543 638.905H92.038V654.05H90.543L89.893 650.605C89.7196 650.042 89.4163 649.5 88.983 648.98C88.593 648.59 87.9213 648.287 86.968 648.07C86.4046 647.94 85.6463 647.832 84.693 647.745C84.6063 647.745 84.5413 647.745 84.498 647.745C83.9346 647.702 83.328 647.68 82.678 647.68H73.383V664.32C73.383 664.97 73.5346 665.447 73.838 665.75C74.098 666.053 74.5963 666.248 75.333 666.335L78.843 666.595H80.078H81.053H81.898H82.613C84.563 666.595 86.058 666.508 87.098 666.335C89.3946 666.118 91.3663 665.36 93.013 664.06C94.6596 662.803 96.068 660.767 97.238 657.95H99.188L96.263 669H61.098V667.7C61.488 667.7 62.073 667.657 62.853 667.57C63.113 667.527 63.438 667.483 63.828 667.44C64.1313 667.353 64.3263 667.31 64.413 667.31C65.2363 667.05 65.843 666.53 66.233 665.75C66.623 664.97 66.818 663.822 66.818 662.305V632.6ZM139.574 626.49C140.224 626.793 141.199 627.032 142.499 627.205C143.756 627.075 144.471 626.36 144.644 625.06H146.009L147.439 638.905H145.749C145.273 636.868 144.514 635.027 143.474 633.38C142.391 631.733 140.983 630.347 139.249 629.22C137.473 628.223 135.631 627.725 133.724 627.725C131.644 627.725 130.063 628.332 128.979 629.545C127.723 630.802 127.094 632.145 127.094 633.575C127.094 634.832 127.463 636.023 128.199 637.15C128.893 638.233 129.716 639.143 130.669 639.88C131.536 640.573 132.208 641.05 132.684 641.31C132.988 641.527 133.681 641.96 134.764 642.61L139.444 645.405C145.771 649.045 148.934 653.313 148.934 658.21C148.934 660.55 148.263 662.608 146.919 664.385C145.576 666.162 143.864 667.527 141.784 668.48C139.834 669.433 137.603 669.91 135.089 669.91C133.963 669.91 133.074 669.823 132.424 669.65L129.174 668.805L126.964 668.09L124.949 667.7C123.693 667.7 123.064 668.437 123.064 669.91H121.634L119.749 656.065H121.114C123.454 662.002 126.726 665.685 130.929 667.115C131.406 667.245 131.991 667.375 132.684 667.505C133.334 667.635 133.854 667.7 134.244 667.7C136.454 667.7 138.361 667.028 139.964 665.685C141.568 664.342 142.369 662.565 142.369 660.355C142.369 658.708 142.023 657.322 141.329 656.195C140.593 655.068 139.683 654.115 138.599 653.335C138.166 652.945 137.559 652.512 136.779 652.035C136.086 651.558 135.241 651.038 134.244 650.475L129.369 647.42C128.589 646.9 127.961 646.467 127.484 646.12C127.051 645.86 126.444 645.405 125.664 644.755C124.451 643.715 123.584 642.74 123.064 641.83C122.111 640.313 121.548 638.407 121.374 636.11C121.374 634.203 121.873 632.362 122.869 630.585C123.823 628.852 125.231 627.487 127.094 626.49C128.828 625.537 130.908 625.06 133.334 625.06C135.154 625.06 137.234 625.537 139.574 626.49ZM171.206 637.02L171.531 625.97H208.256L208.646 637.02H207.086L206.371 633.965C206.068 632.925 205.656 631.993 205.136 631.17C204.659 630.39 203.836 629.783 202.666 629.35C201.453 628.873 199.979 628.635 198.246 628.635H193.111V662.76C193.111 664.147 193.328 665.187 193.761 665.88C194.194 666.573 194.888 667.05 195.841 667.31C195.928 667.31 196.101 667.332 196.361 667.375C196.751 667.462 197.141 667.527 197.531 667.57C198.311 667.657 198.961 667.7 199.481 667.7V669H180.436V667.7C182.603 667.7 184.163 667.375 185.116 666.725C186.069 666.162 186.546 664.927 186.546 663.02V628.635H182.256C180.436 628.635 178.876 628.808 177.576 629.155C176.406 629.545 175.409 630.347 174.586 631.56C173.806 632.687 173.178 634.507 172.701 637.02H171.206ZM263.592 635.525C263.592 633.228 263.441 631.538 263.137 630.455C262.834 629.285 262.227 628.462 261.317 627.985C260.364 627.508 259.064 627.27 257.417 627.27V625.97H272.497V627.14L270.157 627.4C269.464 627.573 268.792 627.855 268.142 628.245C267.666 628.548 267.254 629.177 266.907 630.13C266.561 631.17 266.387 632.513 266.387 634.16V654.115C266.387 656.455 266.062 658.643 265.412 660.68C264.676 662.673 263.701 664.342 262.487 665.685C259.801 668.502 255.532 669.91 249.682 669.91C244.006 669.91 239.759 668.35 236.942 665.23C235.772 663.887 234.884 662.283 234.277 660.42C233.714 658.73 233.432 656.91 233.432 654.96V633.12C233.432 631.69 233.302 630.585 233.042 629.805C232.782 629.025 232.436 628.483 232.002 628.18C231.526 627.877 230.919 627.703 230.182 627.66L227.582 627.27V625.97H245.977V627.205L244.157 627.4C243.594 627.4 243.226 627.422 243.052 627.465C242.922 627.508 242.684 627.595 242.337 627.725L241.817 627.92C241.341 628.093 240.929 628.527 240.582 629.22C240.279 629.87 240.127 630.91 240.127 632.34V655.675C240.127 656.932 240.322 658.318 240.712 659.835C241.102 661.352 241.666 662.543 242.402 663.41C244.569 665.88 247.581 667.115 251.437 667.115C253.604 667.115 255.554 666.747 257.287 666.01C258.977 665.273 260.407 664.168 261.577 662.695C262.921 660.962 263.592 657.972 263.592 653.725V635.525ZM297.175 660.81V633.12C297.175 631.647 297.067 630.477 296.85 629.61C296.59 628.83 296.092 628.267 295.355 627.92C295.052 627.79 294.553 627.638 293.86 627.465C293.297 627.335 292.582 627.27 291.715 627.27V625.97H310.24C312.407 625.97 314.422 626.165 316.285 626.555C318.105 627.032 319.817 627.725 321.42 628.635C322.85 629.502 323.998 630.672 324.865 632.145C325.688 633.618 326.1 635.352 326.1 637.345C326.1 640.248 325.212 642.588 323.435 644.365C321.615 646.185 318.582 647.528 314.335 648.395L327.01 663.8L328.895 666.14C329.242 666.487 329.827 666.833 330.65 667.18C331.473 667.527 332.405 667.7 333.445 667.7V669H322.915L307.445 648.915H303.87V662.24C303.87 663.713 304.043 664.84 304.39 665.62C304.693 666.313 305.192 666.79 305.885 667.05C306.492 667.31 307.098 667.483 307.705 667.57C308.398 667.657 309.07 667.7 309.72 667.7V669H291.715V667.7C292.495 667.7 293.21 667.635 293.86 667.505C294.337 667.462 294.943 667.31 295.68 667.05C296.2 666.877 296.568 666.313 296.785 665.36C297.045 664.45 297.175 662.933 297.175 660.81ZM303.87 630.52V646.64C306.643 646.64 309.222 646.402 311.605 645.925C313.772 645.492 315.57 644.56 317 643.13C318.343 641.787 319.015 639.793 319.015 637.15C319.015 631.3 315.245 628.375 307.705 628.375C306.058 628.375 305.018 628.527 304.585 628.83C304.108 629.177 303.87 629.74 303.87 630.52ZM357.948 661.395L373.483 625.255H374.718L391.423 663.41C392.116 665.1 392.853 666.27 393.633 666.92C394.37 667.527 395.431 667.83 396.818 667.83V669H380.178V667.7L381.218 667.83C383.558 667.83 384.728 667.028 384.728 665.425C384.728 664.775 384.533 663.93 384.143 662.89L380.763 654.895H363.733L360.548 662.89L360.158 665.1C360.158 666.097 360.57 666.79 361.393 667.18C362.216 667.613 363.321 667.83 364.708 667.83V669H351.903V667.83C353.073 667.83 354.091 667.418 354.958 666.595C355.825 665.858 356.821 664.125 357.948 661.395ZM372.378 634.485L364.903 652.23H379.853L372.378 634.485ZM421.821 659.185V630.845C420.781 629.545 419.849 628.613 419.026 628.05C418.202 627.53 417.032 627.27 415.516 627.27V625.97H426.696L451.526 657.105L451.656 635.265C451.656 631.625 451.027 629.307 449.771 628.31C448.817 627.617 447.387 627.27 445.481 627.27V625.97H460.691V627.205C459.087 627.335 457.917 627.552 457.181 627.855C456.357 628.202 455.729 628.917 455.296 630C454.819 631.17 454.581 632.752 454.581 634.745V669.715L453.411 669.78L424.746 634.095V659.12V661.265C424.746 661.742 424.854 662.522 425.071 663.605C425.287 664.645 425.612 665.447 426.046 666.01C426.479 666.617 427.064 667.028 427.801 667.245C428.667 667.548 429.686 667.7 430.856 667.7V669H415.516V667.765L418.766 667.31C419.199 667.18 419.697 666.877 420.261 666.4C420.781 665.967 421.171 665.143 421.431 663.93C421.691 662.803 421.821 661.222 421.821 659.185ZM479.778 637.02L480.103 625.97H516.828L517.218 637.02H515.658L514.943 633.965C514.64 632.925 514.228 631.993 513.708 631.17C513.232 630.39 512.408 629.783 511.238 629.35C510.025 628.873 508.552 628.635 506.818 628.635H501.683V662.76C501.683 664.147 501.9 665.187 502.333 665.88C502.767 666.573 503.46 667.05 504.413 667.31C504.5 667.31 504.673 667.332 504.933 667.375C505.323 667.462 505.713 667.527 506.103 667.57C506.883 667.657 507.533 667.7 508.053 667.7V669H489.008V667.7C491.175 667.7 492.735 667.375 493.688 666.725C494.642 666.162 495.118 664.927 495.118 663.02V628.635H490.828C489.008 628.635 487.448 628.808 486.148 629.155C484.978 629.545 483.982 630.347 483.158 631.56C482.378 632.687 481.75 634.507 481.273 637.02H479.778Z" fill="#BA8A34"/>
<defs>
<linearGradient id="paint0_linear_267_4" x1="283.169" y1="0" x2="283.169" y2="384.5" gradientUnits="userSpaceOnUse">
<stop stop-color="#F3D362"/>
<stop offset="1" stop-color="#C89A3B"/>
</linearGradient>
<linearGradient id="paint1_linear_267_4" x1="222.231" y1="154" x2="222.231" y2="398" gradientUnits="userSpaceOnUse">
<stop stop-color="#F3D362"/>
<stop offset="1" stop-color="#C89A3B"/>
</linearGradient>
</defs>
</svg>
