<svg width="25" height="24" viewBox="0 0 25 24" fill="none" xmlns="http://www.w3.org/2000/svg">
<path d="M24.1038 8.90235C23.9275 8.37773 23.4734 7.99523 22.9266 7.9116L16.5633 6.93923L13.705 0.850352C13.4613 0.331352 12.9404 0.000976562 12.3681 0.000976562C11.7955 0.000976562 11.275 0.331352 11.0313 0.850352L8.17264 6.9396L1.80927 7.91198C1.26252 7.9956 0.808391 8.37773 0.632516 8.90273C0.456641 9.42773 0.589391 10.006 0.976016 10.4027L5.62302 15.1679L4.52239 21.9092C4.43164 22.4672 4.66827 23.0282 5.12989 23.3545C5.59114 23.6807 6.20014 23.7137 6.69627 23.44L12.3685 20.3031L18.0408 23.44C18.2646 23.5637 18.511 23.6245 18.7563 23.6245C19.0548 23.6245 19.3533 23.5337 19.6071 23.3545C20.0688 23.0286 20.305 22.4676 20.2143 21.9092L19.1136 15.1679L23.761 10.4027C24.1469 10.006 24.2796 9.42773 24.1038 8.90235Z" fill="#FFC130"/>
</svg>
